<svg xmlns="http://www.w3.org/2000/svg" viewBox="0 0 500 350">
  <defs>
    <!-- 绿松石球体 - 青蓝绿 -->
    <radialGradient id="turquoiseSphere" cx="35%" cy="30%" r="70%">
      <stop offset="0%" stop-color="#B2EBF2"/>
      <stop offset="15%" stop-color="#80DEEA"/>
      <stop offset="35%" stop-color="#4DD0E1"/>
      <stop offset="60%" stop-color="#00ACC1"/>
      <stop offset="85%" stop-color="#006064"/>
      <stop offset="100%" stop-color="#00363A"/>
    </radialGradient>
    <!-- 绿松石高光 -->
    <radialGradient id="turquoiseSpecular" cx="30%" cy="25%" r="25%">
      <stop offset="0%" stop-color="rgba(255,255,255,0.85)"/>
      <stop offset="40%" stop-color="rgba(255,255,255,0.3)"/>
      <stop offset="100%" stop-color="rgba(255,255,255,0)"/>
    </radialGradient>
    <!-- 矿纹效果 -->
    <filter id="turquoiseMatrix">
      <feTurbulence type="fractalNoise" baseFrequency="0.08" numOctaves="3" seed="40" result="noise"/>
      <feColorMatrix type="matrix" values="0.8 0 0 0 0  0 1.2 0 0 0  0 0 1 0 0  0 0 0 0.4 0" in="noise"/>
    </filter>
    <radialGradient id="shadow" cx="50%" cy="50%" r="50%">
      <stop offset="0%" stop-color="rgba(0,0,0,0.2)"/>
      <stop offset="100%" stop-color="rgba(0,0,0,0)"/>
    </radialGradient>
  </defs>

  <rect width="500" height="350" fill="#F5F5F5"/>
  <ellipse cx="250" cy="260" rx="180" ry="35" fill="rgba(0,0,0,0.1)"/>

  <g id="turquoiseBead">
    <ellipse cx="0" cy="42" rx="32" ry="10" fill="url(#shadow)"/>
    <circle r="35" fill="url(#turquoiseSphere)"/>
    <circle r="33" fill="url(#turquoiseSphere)" filter="url(#turquoiseMatrix)" opacity="0.4"/>
    <ellipse cx="-12" cy="-12" rx="14" ry="10" fill="url(#turquoiseSpecular)"/>
    <ellipse cx="15" cy="8" rx="6" ry="4" fill="rgba(255,255,255,0.3)"/>
    <circle r="3" fill="#00363A"/>
  </g>

  <g transform="translate(250, 175)">
    <path d="M -160,-30 Q -180,0 -160,30" fill="none" stroke="#00838F" stroke-width="3"/>
    <g transform="translate(-150, -20) scale(0.9)"><use href="#turquoiseBead"/></g>
    <g transform="translate(-115, -45) scale(0.92)"><use href="#turquoiseBead"/></g>
    <g transform="translate(-70, -60) scale(0.95)"><use href="#turquoiseBead"/></g>
    <g transform="translate(-20, -68) scale(0.95)"><use href="#turquoiseBead"/></g>
    <g transform="translate(30, -65) scale(0.95)"><use href="#turquoiseBead"/></g>
    <g transform="translate(80, -55) scale(0.92)"><use href="#turquoiseBead"/></g>
    <g transform="translate(125, -35) scale(0.9)"><use href="#turquoiseBead"/></g>
    <g transform="translate(155, -5) scale(0.88)"><use href="#turquoiseBead"/></g>
    <g transform="translate(160, 35) scale(0.85)"><use href="#turquoiseBead"/></g>
  </g>

  <g transform="translate(250, 175)">
    <g transform="translate(140, 50)"><use href="#turquoiseBead"/></g>
    <g transform="translate(100, 75)"><use href="#turquoiseBead"/></g>
    <g transform="translate(55, 90)"><use href="#turquoiseBead"/></g>
    <g transform="translate(5, 98)"><use href="#turquoiseBead"/></g>
    <g transform="translate(-45, 95)"><use href="#turquoiseBead"/></g>
    <g transform="translate(-90, 82)"><use href="#turquoiseBead"/></g>
    <g transform="translate(-128, 60)"><use href="#turquoiseBead"/></g>
    <g transform="translate(-155, 28)"><use href="#turquoiseBead"/></g>
  </g>
</svg>
